<?xml version="1.0" encoding="UTF-8"?>
<svg id="Layer_1" data-name="Layer 1" xmlns="http://www.w3.org/2000/svg" viewBox="0 0 91.04 30">
  <defs>
    
  </defs>
  <path class="cls-1" d="m13.69,6.46c-.72-.72-1.56-1.29-2.52-1.7-.96-.41-1.99-.62-3.09-.62s-2.13.21-3.09.62c-.96.41-1.81.98-2.52,1.7-.72.72-1.29,1.56-1.7,2.52-.41.96-.62,1.99-.62,3.09v7.93h4.06v-7.93c0-.53.1-1.03.3-1.51.2-.48.48-.89.82-1.24.35-.35.76-.62,1.24-.82.48-.2.98-.3,1.51-.3s1.03.1,1.51.3c.48.2.89.48,1.24.82.35.35.62.76.82,1.24.2.48.3.98.3,1.51v7.93h4.06v-7.93c0-1.1-.21-2.13-.62-3.09-.41-.96-.98-1.8-1.7-2.52h0Z"></path>
  <path class="cls-1" d="m32.58,13.93h4.34c.1-.24.2-.49.28-.74.34-1.01.51-2.07.51-3.19,0-1.37-.26-2.67-.79-3.89-.53-1.22-1.24-2.28-2.14-3.17-.9-.9-1.96-1.61-3.17-2.14-1.22-.53-2.51-.79-3.89-.79s-2.67.26-3.89.79c-1.22.53-2.28,1.24-3.19,2.14-.91.9-1.62,1.96-2.14,3.17-.52,1.22-.78,2.51-.78,3.89s.26,2.66.78,3.87c.52,1.21,1.23,2.26,2.13,3.17.9.91,1.95,1.63,3.16,2.16,1.21.53,2.5.79,3.87.79h9.97v-4.06h-9.97c-.8,0-1.56-.16-2.27-.48-.71-.32-1.33-.75-1.86-1.29-.53-.54-.95-1.17-1.26-1.89-.31-.72-.46-1.48-.46-2.29s.15-1.6.46-2.32c.31-.72.73-1.35,1.27-1.89.54-.54,1.17-.97,1.89-1.29.72-.32,1.49-.48,2.32-.48s1.6.16,2.32.48c.72.32,1.35.75,1.89,1.29.54.54.97,1.17,1.29,1.89.32.72.48,1.49.48,2.32s-.14,1.52-.43,2.22l-.7,1.71h0Z"></path>
  <path class="cls-1" d="m53.05,6.46c-.72-.72-1.56-1.29-2.52-1.7-.96-.41-1.99-.62-3.09-.62s-2.13.21-3.09.62c-.96.41-1.81.98-2.52,1.7-.72.72-1.29,1.56-1.7,2.52-.41.96-.62,1.99-.62,3.09s.21,2.13.62,3.09c.41.96.98,1.81,1.7,2.52.72.72,1.56,1.29,2.52,1.7.96.41,1.99.62,3.09.62s2.13-.21,3.09-.62c.96-.41,1.8-.98,2.52-1.7.72-.72,1.29-1.56,1.7-2.52.41-.96.62-1.99.62-3.09s-.21-2.13-.62-3.09c-.41-.96-.98-1.8-1.7-2.52Zm-2.05,7.13c-.2.48-.48.89-.82,1.24-.35.35-.76.62-1.24.82-.48.2-.98.3-1.51.3s-1.03-.1-1.51-.3c-.48-.2-.89-.48-1.24-.82-.35-.35-.62-.76-.82-1.24-.2-.48-.3-.98-.3-1.51s.1-1.03.3-1.51c.2-.48.48-.89.82-1.24.35-.35.76-.62,1.24-.82.48-.2.98-.3,1.51-.3s1.03.1,1.51.3c.48.2.89.48,1.24.82.35.35.62.76.82,1.24.2.48.3.98.3,1.51s-.1,1.03-.3,1.51Z"></path>
  <path class="cls-1" d="m68.92.05h-.03v5.09c-.56-.31-1.17-.55-1.81-.73-.66-.18-1.33-.27-2.03-.27-1.1,0-2.13.21-3.09.62-.96.41-1.81.98-2.52,1.7s-1.29,1.56-1.7,2.52c-.41.96-.62,1.99-.62,3.09s.21,2.13.62,3.09c.41.96.98,1.81,1.7,2.52.72.72,1.56,1.29,2.52,1.7.96.41,1.99.62,3.09.62s2.13-.21,3.09-.62c.26-.11.51-.23.75-.36v.98h4.05v-7.1c.03-.27.04-.55.04-.84V.02h-4.06v.03h0Zm-.3,13.54c-.2.48-.48.89-.82,1.24-.35.35-.76.62-1.24.82-.48.2-.98.3-1.51.3s-1.03-.1-1.51-.3c-.48-.2-.89-.48-1.24-.82-.35-.35-.62-.76-.82-1.24-.2-.48-.3-.98-.3-1.51s.1-1.03.3-1.51c.2-.48.48-.89.82-1.24.35-.35.76-.62,1.24-.82.48-.2.98-.3,1.51-.3s1.03.1,1.51.3c.48.2.89.48,1.24.82.35.35.62.76.82,1.24.14.33.23.67.27,1.03v.97c-.04.35-.13.7-.27,1.03h0Z"></path>
  <path class="cls-1" d="m84.23,15.73c-.39.13-.79.19-1.21.19-.72,0-1.38-.18-1.98-.54-.59-.36-1.06-.84-1.4-1.44h11.13c.07-.3.12-.61.16-.92.04-.32.07-.65.07-.99,0-1.1-.21-2.14-.62-3.11-.41-.97-.98-1.81-1.71-2.54-.72-.72-1.57-1.29-2.54-1.71-.97-.41-2-.62-3.11-.62s-2.14.21-3.11.62c-.97.41-1.81.98-2.54,1.71-.72.72-1.29,1.57-1.71,2.54-.41.97-.62,2-.62,3.11s.21,2.14.62,3.11c.41.97.98,1.81,1.71,2.54.72.72,1.57,1.29,2.54,1.71.97.41,2,.62,3.11.62.91,0,1.79-.14,2.62-.43.83-.29,1.58-.7,2.26-1.23l-2.62-3.16c-.32.23-.67.41-1.05.54h0Zm-1.29-7.56h.13c1.91,0,3.47,1.49,3.47,3.33h-7.07c0-1.84,1.55-3.33,3.47-3.33h0Z"></path>
  <g>
    <path class="cls-1" d="m2.31,27.11c-.02-.17-.09-.3-.22-.39s-.3-.14-.51-.14c-.15,0-.27.02-.38.07s-.19.11-.24.18c-.05.08-.08.16-.09.26,0,.08.02.15.06.21s.09.11.15.15.14.08.22.1c.08.03.16.05.24.07l.37.09c.15.03.29.08.43.14.14.06.26.13.37.22.11.09.19.2.26.32.06.12.1.27.1.44,0,.23-.06.43-.18.6-.12.17-.29.31-.51.41-.22.1-.49.15-.8.15s-.57-.05-.79-.14c-.22-.09-.4-.23-.52-.41-.12-.18-.19-.4-.2-.66h.7c.01.14.05.25.12.34.07.09.17.16.29.2s.25.07.4.07.29-.02.4-.07c.12-.05.21-.11.27-.19.07-.08.1-.18.1-.29,0-.1-.03-.19-.09-.25s-.14-.12-.25-.17-.23-.08-.37-.12l-.44-.11c-.32-.08-.58-.21-.76-.38s-.28-.39-.28-.67c0-.23.06-.43.19-.6.12-.17.3-.31.51-.4s.46-.14.73-.14.52.05.73.14c.21.1.37.23.49.4.12.17.18.36.18.58h-.68Z"></path>
    <path class="cls-1" d="m9.3,27.99c0,.42-.08.78-.23,1.08-.16.3-.37.53-.64.69-.27.16-.58.24-.92.24s-.65-.08-.92-.24c-.27-.16-.48-.39-.64-.69-.16-.3-.23-.66-.23-1.08s.08-.78.23-1.08c.16-.3.37-.53.64-.69.27-.16.58-.24.92-.24s.65.08.92.24c.27.16.48.39.64.69.16.3.23.66.23,1.08h0Zm-.71,0c0-.3-.05-.55-.14-.75-.09-.2-.22-.36-.38-.46s-.35-.16-.56-.16-.4.05-.56.16-.29.26-.38.46c-.09.2-.14.45-.14.75s.05.55.14.75c.09.2.22.36.38.46s.35.16.56.16.4-.05.56-.16c.16-.11.29-.26.38-.46.09-.2.14-.45.14-.75Z"></path>
    <path class="cls-1" d="m12.12,29.94v-3.9h2.5v.59h-1.79v1.06h1.62v.59h-1.62v1.66h-.71Z"></path>
    <path class="cls-1" d="m17.24,26.63v-.59h3.11v.59h-1.21v3.31h-.7v-3.31h-1.21,0Z"></path>
    <path class="cls-1" d="m23.92,29.94l-1.1-3.9h.76l.7,2.87h.04l.75-2.87h.69l.75,2.87h.03l.7-2.87h.76l-1.1,3.9h-.7l-.78-2.74h-.03l-.78,2.74h-.7,0Z"></path>
    <path class="cls-1" d="m30.78,29.94h-.75l1.37-3.9h.87l1.38,3.9h-.75l-1.04-3.1h-.03l-1.04,3.1h0Zm.03-1.53h2.06v.57h-2.06v-.57Z"></path>
    <path class="cls-1" d="m36.31,29.94v-3.9h1.46c.3,0,.55.05.76.16s.36.25.46.44c.1.19.16.41.16.65s-.05.47-.16.65c-.11.18-.26.33-.47.43-.21.1-.46.15-.76.15h-1.04v-.59h.95c.18,0,.32-.03.43-.07s.19-.12.25-.22.08-.21.08-.35-.03-.26-.08-.36c-.05-.1-.14-.17-.25-.22-.11-.05-.26-.08-.43-.08h-.65v3.31h-.71,0Zm2.01-1.77l.97,1.77h-.79l-.95-1.77h.77Z"></path>
    <path class="cls-1" d="m41.94,29.94v-3.9h2.54v.59h-1.83v1.06h1.7v.59h-1.7v1.06h1.85v.59h-2.55Z"></path>
    <path class="cls-1" d="m54.17,27.36h-.71c-.02-.12-.06-.22-.11-.31s-.12-.17-.2-.23-.17-.11-.28-.14-.22-.05-.33-.05c-.21,0-.4.05-.56.16s-.29.26-.39.47c-.09.2-.14.45-.14.75s.05.55.14.75c.09.2.22.36.39.46s.35.15.56.15c.12,0,.23-.01.33-.05s.19-.08.28-.14c.08-.06.15-.14.21-.22s.1-.19.12-.3h.71c-.03.19-.08.36-.17.53-.09.16-.2.31-.34.43-.14.12-.31.22-.5.29s-.4.1-.63.1c-.34,0-.65-.08-.92-.24-.27-.16-.48-.39-.64-.69-.15-.3-.23-.66-.23-1.08s.08-.78.23-1.08c.16-.3.37-.53.64-.69.27-.16.57-.24.91-.24.22,0,.42.03.61.09s.35.15.5.27c.15.12.27.26.36.43.1.17.16.36.19.58h0Z"></path>
    <path class="cls-1" d="m60.45,27.99c0,.42-.08.78-.23,1.08-.16.3-.37.53-.64.69s-.58.24-.92.24-.65-.08-.92-.24c-.27-.16-.48-.39-.64-.69s-.23-.66-.23-1.08.08-.78.23-1.08c.16-.3.37-.53.64-.69s.58-.24.92-.24.65.08.92.24c.27.16.48.39.64.69.16.3.23.66.23,1.08h0Zm-.71,0c0-.3-.05-.55-.14-.75-.09-.2-.22-.36-.38-.46s-.35-.16-.56-.16-.4.05-.56.16-.29.26-.38.46c-.09.2-.14.45-.14.75s.05.55.14.75c.09.2.22.36.38.46s.35.16.56.16.4-.05.56-.16c.16-.11.29-.26.38-.46.09-.2.14-.45.14-.75Z"></path>
    <path class="cls-1" d="m63.27,26.04h.87l1.16,2.83h.05l1.16-2.83h.87v3.9h-.68v-2.68h-.04l-1.08,2.67h-.51l-1.08-2.68h-.04v2.69h-.68v-3.9h0Z"></path>
    <path class="cls-1" d="m70.28,29.94v-3.9h1.46c.3,0,.55.06.76.17s.36.26.46.46.16.42.16.66-.05.47-.16.67c-.11.19-.26.35-.47.46-.21.11-.46.17-.76.17h-.97v-.58h.87c.18,0,.32-.03.43-.09.11-.06.19-.14.25-.25.05-.11.08-.23.08-.37s-.03-.26-.08-.37c-.05-.11-.14-.19-.25-.25-.11-.06-.26-.09-.43-.09h-.65v3.31h-.71,0Z"></path>
    <path class="cls-1" d="m75.95,29.94h-.76l1.37-3.9h.87l1.38,3.9h-.76l-1.04-3.1h-.03l-1.04,3.1h0Zm.03-1.53h2.06v.57h-2.06v-.57Z"></path>
    <path class="cls-1" d="m84.68,26.04v3.9h-.63l-1.84-2.66h-.03v2.66h-.71v-3.9h.63l1.84,2.66h.03v-2.66h.7,0Z"></path>
    <path class="cls-1" d="m87.33,26.04h.8l.95,1.73h.04l.95-1.73h.8l-1.42,2.45v1.46h-.7v-1.46l-1.42-2.45h0Z"></path>
  </g>
</svg>